<svg xmlns="http://www.w3.org/2000/svg" width="25.75" height="29.033" viewBox="39.983 347.983 25.75 29.033"><path d="m42.371 360.39 1.407 13.183c0 .395.468.79.82.79h16.64c.352 0 .821-.395.821-.79l1.406-13.182c0-.264-.117-.527-.468-.527H42.84c-.352 0-.469.131-.469.527Zm-2.344.265c-.234-1.846 1.055-3.428 2.696-3.428h20.274c1.64 0 2.93 1.582 2.695 3.428l-1.406 13.181C64.05 375.55 62.762 377 61.122 377H44.598c-1.524 0-2.93-1.318-3.164-3.164l-1.407-13.181Zm4.688-5.405c-.703 0-1.172-.527-1.172-1.318s.469-1.318 1.172-1.318h16.407c.703 0 1.172.527 1.172 1.318 0 .79-.47 1.318-1.172 1.318H44.715Zm2.93-4.614c-.703 0-1.172-.527-1.172-1.318 0-.79.469-1.318 1.172-1.318h10.547c.703 0 1.172.527 1.172 1.318s-.469 1.318-1.172 1.318H47.645Z" fill="#fff" fill-rule="evenodd" data-name="path"/></svg>