<svg xmlns="http://www.w3.org/2000/svg" width="13.683" height="13.817" viewBox="59 855 13.683 13.817"><path d="M65.827 868.792c-3.77 0-6.827-3.087-6.827-6.896 0-3.808 3.057-6.896 6.827-6.896 3.771 0 6.828 3.088 6.828 6.896 0 3.809-3.057 6.896-6.828 6.896Zm0-1.253c3.085 0 5.586-2.527 5.586-5.643 0-3.116-2.5-5.642-5.586-5.642-3.085 0-5.586 2.526-5.586 5.642 0 3.116 2.501 5.643 5.586 5.643Zm-1.722-7.813 4.345-1.254a.624.624 0 0 1 .767.775l-1.241 4.389a.624.624 0 0 1-.426.43l-4.345 1.254a.624.624 0 0 1-.767-.775l1.24-4.388a.624.624 0 0 1 .427-.43Zm-.167 4.079 2.939-.849.84-2.968-2.94.848-.839 2.969Zm1.89-1.282a.624.624 0 0 1-.621-.627c0-.346.278-.627.62-.627.343 0 .621.281.621.627a.624.624 0 0 1-.62.627Z" fill="#070707" fill-rule="evenodd" data-name="Combined-Shape"/></svg>