<svg xmlns="http://www.w3.org/2000/svg" width="11.35" height="12.117" viewBox="30 856.25 11.35 12.117"><path d="M38.508 857.354h1.54c.71 0 1.286.617 1.285 1.378v8.245c0 .76-.575 1.378-1.286 1.377H31.32c-.71 0-1.286-.616-1.286-1.377v-8.246c0-.76.575-1.377 1.286-1.377h1.539v-.55c0-.303.23-.55.514-.55.283 0 .513.247.513.55v.55h3.596v-.55c0-.303.23-.55.514-.55.283 0 .513.247.513.55v.55Zm0 1.1v.55c0 .304-.23.55-.513.55-.284 0-.514-.246-.514-.55v-.55h-3.596v.55c0 .304-.23.55-.513.55-.284 0-.514-.246-.514-.55v-.55h-1.54c-.143 0-.258.124-.258.277v8.246c0 .154.116.277.259.277h8.728c.144 0 .259-.123.259-.277v-8.246c0-.153-.116-.277-.259-.277h-1.539Zm-2.825 4.4c-.425 0-.77-.369-.77-.825 0-.455.345-.825.77-.825.426 0 .77.37.77.825 0 .456-.344.825-.77.825Zm2.825 0c-.425 0-.77-.369-.77-.825 0-.455.345-.825.77-.825.426 0 .77.37.77.825 0 .456-.344.825-.77.825Zm-5.65 3.025c-.426 0-.77-.37-.77-.825 0-.455.344-.825.77-.825.425 0 .77.37.77.825 0 .456-.345.825-.77.825Zm2.825 0c-.425 0-.77-.37-.77-.825 0-.455.345-.825.77-.825.426 0 .77.37.77.825 0 .456-.344.825-.77.825Z" fill="#8c8a8a" fill-rule="evenodd" data-name="ico"/></svg>