<svg xmlns="http://www.w3.org/2000/svg" width="19.033" height="20.033" viewBox="2.983 2.983 19.033 20.033"><path d="M3.345 20.545C3 21.955 3.993 23 5.332 22.636l2.85-.727C9.477 22.636 10.989 23 12.5 23c5.268 0 9.5-4.455 9.5-10S17.768 3 12.5 3 3 7.455 3 13c0 1.59.345 3.182 1.036 4.59l-.69 2.955Zm2.462-2.863c.043-.227.043-.455-.087-.682a8.546 8.546 0 0 1-.993-4c0-4.5 3.498-8.182 7.773-8.182 4.275 0 7.773 3.682 7.773 8.182s-3.498 8.182-7.773 8.182a7.495 7.495 0 0 1-3.8-1.046c-.173-.136-.432-.136-.648-.09l-3.022.772.777-3.136Zm10.58-5.591c.474 0 .863-.41.863-.91s-.389-.908-.864-.908H8.614c-.475 0-.864.409-.864.909s.389.909.864.909h7.772Zm0 3.636c.474 0 .863-.409.863-.909s-.389-.909-.864-.909h-5.181c-.475 0-.864.41-.864.91s.389.908.864.908h5.181Z" fill="#455a64" fill-rule="evenodd" data-name="path"/></svg>