<svg xmlns="http://www.w3.org/2000/svg" width="18.133" height="22.15" viewBox="2.933 0.917 18.133 22.15"><g data-name="Notification/Icon"><path d="M6.223 18h11.554c1.829 0 2.872-1.84 1.775-3.128a3.656 3.656 0 0 1-.865-1.957l-.447-3.94c-.242-2.124-1.828-3.868-3.97-4.601V4.27a2.27 2.27 0 0 0-4.54 0v.104c-2.142.733-3.728 2.477-3.97 4.601l-.447 3.94c-.08.71-.38 1.387-.865 1.957C3.35 16.161 4.394 18 6.223 18ZM15 20c-.437 1.165-1.615 2-3 2s-2.563-.835-3-2" stroke-linejoin="round" stroke-linecap="round" stroke-width="1.5" stroke="#455a64" fill="transparent" data-name="Vector"/></g></svg>