<svg xmlns="http://www.w3.org/2000/svg" width="20.15" height="20.15" viewBox="1.933 1.933 20.15 20.15"><g data-name="CompositeLayer"><path d="M3 21h18M13.784 5.312s0 1.634 1.635 3.269c1.635 1.635 3.27 1.635 3.27 1.635" stroke-linejoin="round" stroke-linecap="round" stroke-width="1.5" stroke="#455a64" fill="transparent" data-name="Vector"/><path d="M15.419 3.677a2.312 2.312 0 0 1 3.27 0l1.634 1.635a2.312 2.312 0 0 1 0 3.269l-8.263 8.263a2.312 2.312 0 0 1-1.308.654l-3.432.49a1.156 1.156 0 0 1-1.308-1.308l.49-3.432c.071-.495.3-.954.654-1.308l8.263-8.263Z" stroke-linejoin="round" stroke-linecap="round" stroke-width="1.5" stroke="#455a64" fill="transparent" data-name="Vector"/></g></svg>