<svg xmlns="http://www.w3.org/2000/svg" width="21.033" height="19.133" viewBox="1.683 2.933 21.033 19.133"><g data-name="Huge-icon/finance and payment/outline/wallet 3"><g data-name="Group 71"><g data-name="Group 4"><g data-name="Group 6"><path d="M21.639 8a4 4 0 0 0-4-4H6.75a4 4 0 0 0-4 4v9a4 4 0 0 0 4 4H17.64a4 4 0 0 0 4-4V8Z" stroke-linejoin="round" stroke-linecap="round" stroke-width="1.5" stroke="#455a64" fill="transparent" data-name="Path 10"/><path d="M2.75 9.667H2a.75.75 0 0 1 .75-.75v.75Zm0 5.666v.75a.75.75 0 0 1-.75-.75h.75Zm2.833-4.916H2.75v-1.5h2.833v1.5ZM3.5 9.667v5.666H2V9.667h1.5Zm-.75 4.916h2.833v1.5H2.75v-1.5Zm2.833 0c1.15 0 2.084-.932 2.084-2.083h1.5a3.583 3.583 0 0 1-3.584 3.583v-1.5Zm0-5.666A3.583 3.583 0 0 1 9.167 12.5h-1.5c0-1.15-.933-2.083-2.084-2.083v-1.5Z" fill="#455a64" fill-rule="evenodd" data-name="Path 11"/></g></g></g></g></svg>