<svg xmlns="http://www.w3.org/2000/svg" width="22.15" height="22.15" viewBox="0.917 0.917 22.15 22.15"><g data-name="Huge-icon/user/outline/user-circle"><path d="M22 12a9.977 9.977 0 0 1-3.441 7.549A9.961 9.961 0 0 1 12 22a9.961 9.961 0 0 1-6.559-2.451A9.977 9.977 0 0 1 2 12C2 6.477 6.477 2 12 2s10 4.477 10 10Z" stroke-linejoin="round" stroke-linecap="round" stroke-width="1.5" stroke="#455a64" fill="transparent" data-name="Vector"/><path d="M18.559 19.549a7.003 7.003 0 0 0-13.118 0" stroke-linejoin="round" stroke-linecap="round" stroke-width="1.5" stroke="#455a64" fill="transparent" data-name="Vector"/><path d="M9 8.9A3 3 0 1 1 9 9z" stroke-linejoin="round" stroke-linecap="round" stroke-width="1.5" stroke="#455a64" fill="transparent" data-name="Ellipse 321"/></g></svg>